<mxfile host="Electron" agent="Mozilla/5.0 (Windows NT 10.0; Win64; x64) AppleWebKit/537.36 (KHTML, like Gecko) draw.io/24.7.17 Chrome/128.0.6613.36 Electron/32.0.1 Safari/537.36" version="24.7.17">
  <diagram name="Page-1" id="MNLU12b26tHhof6xZsnK">
    <mxGraphModel dx="609" dy="1031" grid="1" gridSize="10" guides="1" tooltips="1" connect="1" arrows="1" fold="1" page="1" pageScale="1" pageWidth="3300" pageHeight="2339" math="0" shadow="0">
      <root>
        <mxCell id="0" />
        <mxCell id="1" parent="0" />
        <mxCell id="F02WSiELFCCfnab1IoZd-1" value="Gen1CSVHandler" style="swimlane;fontStyle=1;align=center;verticalAlign=top;childLayout=stackLayout;horizontal=1;startSize=26;horizontalStack=0;resizeParent=1;resizeParentMax=0;resizeLast=0;collapsible=1;marginBottom=0;whiteSpace=wrap;html=1;" parent="1" vertex="1">
          <mxGeometry x="140" y="590" width="500" height="580" as="geometry" />
        </mxCell>
        <mxCell id="F02WSiELFCCfnab1IoZd-2" value="+ load_times: Dict[str, float]" style="text;strokeColor=none;fillColor=none;align=left;verticalAlign=top;spacingLeft=4;spacingRight=4;overflow=hidden;rotatable=0;points=[[0,0.5],[1,0.5]];portConstraint=eastwest;whiteSpace=wrap;html=1;" parent="F02WSiELFCCfnab1IoZd-1" vertex="1">
          <mxGeometry y="26" width="500" height="26" as="geometry" />
        </mxCell>
        <mxCell id="F02WSiELFCCfnab1IoZd-5" value="+ files: List[str]" style="text;strokeColor=none;fillColor=none;align=left;verticalAlign=top;spacingLeft=4;spacingRight=4;overflow=hidden;rotatable=0;points=[[0,0.5],[1,0.5]];portConstraint=eastwest;whiteSpace=wrap;html=1;" parent="F02WSiELFCCfnab1IoZd-1" vertex="1">
          <mxGeometry y="52" width="500" height="26" as="geometry" />
        </mxCell>
        <mxCell id="obyEVf-N4b41pzP6Xn4I-32" value="+ filepath: Optional[str]" style="text;strokeColor=none;fillColor=none;align=left;verticalAlign=top;spacingLeft=4;spacingRight=4;overflow=hidden;rotatable=0;points=[[0,0.5],[1,0.5]];portConstraint=eastwest;whiteSpace=wrap;html=1;" vertex="1" parent="F02WSiELFCCfnab1IoZd-1">
          <mxGeometry y="78" width="500" height="26" as="geometry" />
        </mxCell>
        <mxCell id="F02WSiELFCCfnab1IoZd-12" value="+ df_accelerometer: Optional[pd.DataFrame]" style="text;strokeColor=none;fillColor=none;align=left;verticalAlign=top;spacingLeft=4;spacingRight=4;overflow=hidden;rotatable=0;points=[[0,0.5],[1,0.5]];portConstraint=eastwest;whiteSpace=wrap;html=1;" parent="F02WSiELFCCfnab1IoZd-1" vertex="1">
          <mxGeometry y="104" width="500" height="26" as="geometry" />
        </mxCell>
        <mxCell id="F02WSiELFCCfnab1IoZd-13" value="+ df_strain0: Optional[pd.DataFrame]" style="text;strokeColor=none;fillColor=none;align=left;verticalAlign=top;spacingLeft=4;spacingRight=4;overflow=hidden;rotatable=0;points=[[0,0.5],[1,0.5]];portConstraint=eastwest;whiteSpace=wrap;html=1;" parent="F02WSiELFCCfnab1IoZd-1" vertex="1">
          <mxGeometry y="130" width="500" height="26" as="geometry" />
        </mxCell>
        <mxCell id="F02WSiELFCCfnab1IoZd-14" value="+ df_strain1: Optional[pd.DataFrame]" style="text;strokeColor=none;fillColor=none;align=left;verticalAlign=top;spacingLeft=4;spacingRight=4;overflow=hidden;rotatable=0;points=[[0,0.5],[1,0.5]];portConstraint=eastwest;whiteSpace=wrap;html=1;" parent="F02WSiELFCCfnab1IoZd-1" vertex="1">
          <mxGeometry y="156" width="500" height="26" as="geometry" />
        </mxCell>
        <mxCell id="F02WSiELFCCfnab1IoZd-15" value="+ df_sync: Optional[pd.DataFrame]" style="text;strokeColor=none;fillColor=none;align=left;verticalAlign=top;spacingLeft=4;spacingRight=4;overflow=hidden;rotatable=0;points=[[0,0.5],[1,0.5]];portConstraint=eastwest;whiteSpace=wrap;html=1;" parent="F02WSiELFCCfnab1IoZd-1" vertex="1">
          <mxGeometry y="182" width="500" height="26" as="geometry" />
        </mxCell>
        <mxCell id="obyEVf-N4b41pzP6Xn4I-33" value="# accelerometer_processor: AccelerometerProcessor" style="text;strokeColor=none;fillColor=none;align=left;verticalAlign=top;spacingLeft=4;spacingRight=4;overflow=hidden;rotatable=0;points=[[0,0.5],[1,0.5]];portConstraint=eastwest;whiteSpace=wrap;html=1;" vertex="1" parent="F02WSiELFCCfnab1IoZd-1">
          <mxGeometry y="208" width="500" height="26" as="geometry" />
        </mxCell>
        <mxCell id="obyEVf-N4b41pzP6Xn4I-34" value="# strain_processor: StrainGaugeProcessor" style="text;strokeColor=none;fillColor=none;align=left;verticalAlign=top;spacingLeft=4;spacingRight=4;overflow=hidden;rotatable=0;points=[[0,0.5],[1,0.5]];portConstraint=eastwest;whiteSpace=wrap;html=1;" vertex="1" parent="F02WSiELFCCfnab1IoZd-1">
          <mxGeometry y="234" width="500" height="26" as="geometry" />
        </mxCell>
        <mxCell id="obyEVf-N4b41pzP6Xn4I-35" value="# synchronizer: DataSynchronizer" style="text;strokeColor=none;fillColor=none;align=left;verticalAlign=top;spacingLeft=4;spacingRight=4;overflow=hidden;rotatable=0;points=[[0,0.5],[1,0.5]];portConstraint=eastwest;whiteSpace=wrap;html=1;" vertex="1" parent="F02WSiELFCCfnab1IoZd-1">
          <mxGeometry y="260" width="500" height="26" as="geometry" />
        </mxCell>
        <mxCell id="F02WSiELFCCfnab1IoZd-3" value="" style="line;strokeWidth=1;fillColor=none;align=left;verticalAlign=middle;spacingTop=-1;spacingLeft=3;spacingRight=3;rotatable=0;labelPosition=right;points=[];portConstraint=eastwest;strokeColor=inherit;" parent="F02WSiELFCCfnab1IoZd-1" vertex="1">
          <mxGeometry y="286" width="500" height="8" as="geometry" />
        </mxCell>
        <mxCell id="F02WSiELFCCfnab1IoZd-4" value="+ process_file(filepath: str)" style="text;strokeColor=none;fillColor=none;align=left;verticalAlign=top;spacingLeft=4;spacingRight=4;overflow=hidden;rotatable=0;points=[[0,0.5],[1,0.5]];portConstraint=eastwest;whiteSpace=wrap;html=1;" parent="F02WSiELFCCfnab1IoZd-1" vertex="1">
          <mxGeometry y="294" width="500" height="26" as="geometry" />
        </mxCell>
        <mxCell id="F02WSiELFCCfnab1IoZd-24" value="# list_files()" style="text;strokeColor=none;fillColor=none;align=left;verticalAlign=top;spacingLeft=4;spacingRight=4;overflow=hidden;rotatable=0;points=[[0,0.5],[1,0.5]];portConstraint=eastwest;whiteSpace=wrap;html=1;" parent="F02WSiELFCCfnab1IoZd-1" vertex="1">
          <mxGeometry y="320" width="500" height="26" as="geometry" />
        </mxCell>
        <mxCell id="F02WSiELFCCfnab1IoZd-16" value="# load_raw_data()" style="text;strokeColor=none;fillColor=none;align=left;verticalAlign=top;spacingLeft=4;spacingRight=4;overflow=hidden;rotatable=0;points=[[0,0.5],[1,0.5]];portConstraint=eastwest;whiteSpace=wrap;html=1;" parent="F02WSiELFCCfnab1IoZd-1" vertex="1">
          <mxGeometry y="346" width="500" height="26" as="geometry" />
        </mxCell>
        <mxCell id="F02WSiELFCCfnab1IoZd-17" value="# load_accelerometer_data(filepath: str): pd.DataFrame" style="text;strokeColor=none;fillColor=none;align=left;verticalAlign=top;spacingLeft=4;spacingRight=4;overflow=hidden;rotatable=0;points=[[0,0.5],[1,0.5]];portConstraint=eastwest;whiteSpace=wrap;html=1;" parent="F02WSiELFCCfnab1IoZd-1" vertex="1">
          <mxGeometry y="372" width="500" height="26" as="geometry" />
        </mxCell>
        <mxCell id="F02WSiELFCCfnab1IoZd-18" value="# load_strain_gauge_data(filepath: str): Tuple[pd.DataFrame, pd.DataFrame]" style="text;strokeColor=none;fillColor=none;align=left;verticalAlign=top;spacingLeft=4;spacingRight=4;overflow=hidden;rotatable=0;points=[[0,0.5],[1,0.5]];portConstraint=eastwest;whiteSpace=wrap;html=1;" parent="F02WSiELFCCfnab1IoZd-1" vertex="1">
          <mxGeometry y="398" width="500" height="26" as="geometry" />
        </mxCell>
        <mxCell id="F02WSiELFCCfnab1IoZd-21" value="# synchronize_data()" style="text;strokeColor=none;fillColor=none;align=left;verticalAlign=top;spacingLeft=4;spacingRight=4;overflow=hidden;rotatable=0;points=[[0,0.5],[1,0.5]];portConstraint=eastwest;whiteSpace=wrap;html=1;" parent="F02WSiELFCCfnab1IoZd-1" vertex="1">
          <mxGeometry y="424" width="500" height="26" as="geometry" />
        </mxCell>
        <mxCell id="F02WSiELFCCfnab1IoZd-23" value="+ print_load_times()" style="text;strokeColor=none;fillColor=none;align=left;verticalAlign=top;spacingLeft=4;spacingRight=4;overflow=hidden;rotatable=0;points=[[0,0.5],[1,0.5]];portConstraint=eastwest;whiteSpace=wrap;html=1;" parent="F02WSiELFCCfnab1IoZd-1" vertex="1">
          <mxGeometry y="450" width="500" height="26" as="geometry" />
        </mxCell>
        <mxCell id="obyEVf-N4b41pzP6Xn4I-42" value="+ raw_accelerometer() -&amp;gt; pd.DataFrame" style="text;strokeColor=none;fillColor=none;align=left;verticalAlign=top;spacingLeft=4;spacingRight=4;overflow=hidden;rotatable=0;points=[[0,0.5],[1,0.5]];portConstraint=eastwest;whiteSpace=wrap;html=1;" vertex="1" parent="F02WSiELFCCfnab1IoZd-1">
          <mxGeometry y="476" width="500" height="26" as="geometry" />
        </mxCell>
        <mxCell id="obyEVf-N4b41pzP6Xn4I-43" value="+ raw_strain0() -&amp;gt; pd.DataFrame" style="text;strokeColor=none;fillColor=none;align=left;verticalAlign=top;spacingLeft=4;spacingRight=4;overflow=hidden;rotatable=0;points=[[0,0.5],[1,0.5]];portConstraint=eastwest;whiteSpace=wrap;html=1;" vertex="1" parent="F02WSiELFCCfnab1IoZd-1">
          <mxGeometry y="502" width="500" height="26" as="geometry" />
        </mxCell>
        <mxCell id="obyEVf-N4b41pzP6Xn4I-44" value="+ raw_strain1() -&amp;gt; pd.DataFrame" style="text;strokeColor=none;fillColor=none;align=left;verticalAlign=top;spacingLeft=4;spacingRight=4;overflow=hidden;rotatable=0;points=[[0,0.5],[1,0.5]];portConstraint=eastwest;whiteSpace=wrap;html=1;" vertex="1" parent="F02WSiELFCCfnab1IoZd-1">
          <mxGeometry y="528" width="500" height="26" as="geometry" />
        </mxCell>
        <mxCell id="obyEVf-N4b41pzP6Xn4I-45" value="+ synchronized_data() -&amp;gt; pd.DataFrame" style="text;strokeColor=none;fillColor=none;align=left;verticalAlign=top;spacingLeft=4;spacingRight=4;overflow=hidden;rotatable=0;points=[[0,0.5],[1,0.5]];portConstraint=eastwest;whiteSpace=wrap;html=1;" vertex="1" parent="F02WSiELFCCfnab1IoZd-1">
          <mxGeometry y="554" width="500" height="26" as="geometry" />
        </mxCell>
        <mxCell id="F02WSiELFCCfnab1IoZd-6" value="CutFileHandler" style="swimlane;fontStyle=1;align=center;verticalAlign=top;childLayout=stackLayout;horizontal=1;startSize=26;horizontalStack=0;resizeParent=1;resizeParentMax=0;resizeLast=0;collapsible=1;marginBottom=0;whiteSpace=wrap;html=1;" parent="1" vertex="1">
          <mxGeometry x="1590" y="20" width="620" height="398" as="geometry" />
        </mxCell>
        <mxCell id="F02WSiELFCCfnab1IoZd-7" value="+ filepath: str" style="text;strokeColor=none;fillColor=none;align=left;verticalAlign=top;spacingLeft=4;spacingRight=4;overflow=hidden;rotatable=0;points=[[0,0.5],[1,0.5]];portConstraint=eastwest;whiteSpace=wrap;html=1;" parent="F02WSiELFCCfnab1IoZd-6" vertex="1">
          <mxGeometry y="26" width="620" height="26" as="geometry" />
        </mxCell>
        <mxCell id="ayeC2Awm8TF0PkXGkMxj-39" value="+ columns: list" style="text;strokeColor=none;fillColor=none;align=left;verticalAlign=top;spacingLeft=4;spacingRight=4;overflow=hidden;rotatable=0;points=[[0,0.5],[1,0.5]];portConstraint=eastwest;whiteSpace=wrap;html=1;" parent="F02WSiELFCCfnab1IoZd-6" vertex="1">
          <mxGeometry y="52" width="620" height="26" as="geometry" />
        </mxCell>
        <mxCell id="ayeC2Awm8TF0PkXGkMxj-40" value="+ df_load: pd.DataFrame" style="text;strokeColor=none;fillColor=none;align=left;verticalAlign=top;spacingLeft=4;spacingRight=4;overflow=hidden;rotatable=0;points=[[0,0.5],[1,0.5]];portConstraint=eastwest;whiteSpace=wrap;html=1;" parent="F02WSiELFCCfnab1IoZd-6" vertex="1">
          <mxGeometry y="78" width="620" height="26" as="geometry" />
        </mxCell>
        <mxCell id="ayeC2Awm8TF0PkXGkMxj-41" value="+ df_deflection: pd.DataFrame" style="text;strokeColor=none;fillColor=none;align=left;verticalAlign=top;spacingLeft=4;spacingRight=4;overflow=hidden;rotatable=0;points=[[0,0.5],[1,0.5]];portConstraint=eastwest;whiteSpace=wrap;html=1;" parent="F02WSiELFCCfnab1IoZd-6" vertex="1">
          <mxGeometry y="104" width="620" height="26" as="geometry" />
        </mxCell>
        <mxCell id="ayeC2Awm8TF0PkXGkMxj-42" value="+ df_surface_finish: pd.DataFrame" style="text;strokeColor=none;fillColor=none;align=left;verticalAlign=top;spacingLeft=4;spacingRight=4;overflow=hidden;rotatable=0;points=[[0,0.5],[1,0.5]];portConstraint=eastwest;whiteSpace=wrap;html=1;" parent="F02WSiELFCCfnab1IoZd-6" vertex="1">
          <mxGeometry y="130" width="620" height="26" as="geometry" />
        </mxCell>
        <mxCell id="ayeC2Awm8TF0PkXGkMxj-43" value="+ df_vibration: pd.DataFrame" style="text;strokeColor=none;fillColor=none;align=left;verticalAlign=top;spacingLeft=4;spacingRight=4;overflow=hidden;rotatable=0;points=[[0,0.5],[1,0.5]];portConstraint=eastwest;whiteSpace=wrap;html=1;" parent="F02WSiELFCCfnab1IoZd-6" vertex="1">
          <mxGeometry y="156" width="620" height="26" as="geometry" />
        </mxCell>
        <mxCell id="ayeC2Awm8TF0PkXGkMxj-44" value="+ df_sync: pd.DataFrame" style="text;strokeColor=none;fillColor=none;align=left;verticalAlign=top;spacingLeft=4;spacingRight=4;overflow=hidden;rotatable=0;points=[[0,0.5],[1,0.5]];portConstraint=eastwest;whiteSpace=wrap;html=1;" parent="F02WSiELFCCfnab1IoZd-6" vertex="1">
          <mxGeometry y="182" width="620" height="26" as="geometry" />
        </mxCell>
        <mxCell id="F02WSiELFCCfnab1IoZd-9" value="" style="line;strokeWidth=1;fillColor=none;align=left;verticalAlign=middle;spacingTop=-1;spacingLeft=3;spacingRight=3;rotatable=0;labelPosition=right;points=[];portConstraint=eastwest;strokeColor=inherit;" parent="F02WSiELFCCfnab1IoZd-6" vertex="1">
          <mxGeometry y="208" width="620" height="8" as="geometry" />
        </mxCell>
        <mxCell id="F02WSiELFCCfnab1IoZd-10" value="- parse_file()" style="text;strokeColor=none;fillColor=none;align=left;verticalAlign=top;spacingLeft=4;spacingRight=4;overflow=hidden;rotatable=0;points=[[0,0.5],[1,0.5]];portConstraint=eastwest;whiteSpace=wrap;html=1;" parent="F02WSiELFCCfnab1IoZd-6" vertex="1">
          <mxGeometry y="216" width="620" height="26" as="geometry" />
        </mxCell>
        <mxCell id="ayeC2Awm8TF0PkXGkMxj-45" value="- list_files()" style="text;strokeColor=none;fillColor=none;align=left;verticalAlign=top;spacingLeft=4;spacingRight=4;overflow=hidden;rotatable=0;points=[[0,0.5],[1,0.5]];portConstraint=eastwest;whiteSpace=wrap;html=1;" parent="F02WSiELFCCfnab1IoZd-6" vertex="1">
          <mxGeometry y="242" width="620" height="26" as="geometry" />
        </mxCell>
        <mxCell id="ayeC2Awm8TF0PkXGkMxj-46" value="- load_all_post_processed_data()" style="text;strokeColor=none;fillColor=none;align=left;verticalAlign=top;spacingLeft=4;spacingRight=4;overflow=hidden;rotatable=0;points=[[0,0.5],[1,0.5]];portConstraint=eastwest;whiteSpace=wrap;html=1;" parent="F02WSiELFCCfnab1IoZd-6" vertex="1">
          <mxGeometry y="268" width="620" height="26" as="geometry" />
        </mxCell>
        <mxCell id="ayeC2Awm8TF0PkXGkMxj-47" value="- load_data_for_column(column: str) -&amp;gt; pd.DataFrame" style="text;strokeColor=none;fillColor=none;align=left;verticalAlign=top;spacingLeft=4;spacingRight=4;overflow=hidden;rotatable=0;points=[[0,0.5],[1,0.5]];portConstraint=eastwest;whiteSpace=wrap;html=1;" parent="F02WSiELFCCfnab1IoZd-6" vertex="1">
          <mxGeometry y="294" width="620" height="26" as="geometry" />
        </mxCell>
        <mxCell id="ayeC2Awm8TF0PkXGkMxj-48" value="- synchronize_data()" style="text;strokeColor=none;fillColor=none;align=left;verticalAlign=top;spacingLeft=4;spacingRight=4;overflow=hidden;rotatable=0;points=[[0,0.5],[1,0.5]];portConstraint=eastwest;whiteSpace=wrap;html=1;" parent="F02WSiELFCCfnab1IoZd-6" vertex="1">
          <mxGeometry y="320" width="620" height="26" as="geometry" />
        </mxCell>
        <mxCell id="ayeC2Awm8TF0PkXGkMxj-49" value="- get_time_range_and_samples(dataframes: List[pd.DataFrame]) -&amp;gt; Tuple[float, float, int]" style="text;strokeColor=none;fillColor=none;align=left;verticalAlign=top;spacingLeft=4;spacingRight=4;overflow=hidden;rotatable=0;points=[[0,0.5],[1,0.5]];portConstraint=eastwest;whiteSpace=wrap;html=1;" parent="F02WSiELFCCfnab1IoZd-6" vertex="1">
          <mxGeometry y="346" width="620" height="26" as="geometry" />
        </mxCell>
        <mxCell id="ayeC2Awm8TF0PkXGkMxj-50" value="- interpolate_data(t: np.ndarray, df: pd.DataFrame, columns: List[str]) -&amp;gt; pd.DataFrame" style="text;strokeColor=none;fillColor=none;align=left;verticalAlign=top;spacingLeft=4;spacingRight=4;overflow=hidden;rotatable=0;points=[[0,0.5],[1,0.5]];portConstraint=eastwest;whiteSpace=wrap;html=1;" parent="F02WSiELFCCfnab1IoZd-6" vertex="1">
          <mxGeometry y="372" width="620" height="26" as="geometry" />
        </mxCell>
        <mxCell id="F02WSiELFCCfnab1IoZd-25" value="AnomalyDetector" style="swimlane;fontStyle=1;align=center;verticalAlign=top;childLayout=stackLayout;horizontal=1;startSize=26;horizontalStack=0;resizeParent=1;resizeParentMax=0;resizeLast=0;collapsible=1;marginBottom=0;whiteSpace=wrap;html=1;" parent="1" vertex="1">
          <mxGeometry x="2490" y="1730" width="380" height="164" as="geometry" />
        </mxCell>
        <mxCell id="F02WSiELFCCfnab1IoZd-26" value="+ model: AutoEncoder" style="text;strokeColor=none;fillColor=none;align=left;verticalAlign=top;spacingLeft=4;spacingRight=4;overflow=hidden;rotatable=0;points=[[0,0.5],[1,0.5]];portConstraint=eastwest;whiteSpace=wrap;html=1;" parent="F02WSiELFCCfnab1IoZd-25" vertex="1">
          <mxGeometry y="26" width="380" height="26" as="geometry" />
        </mxCell>
        <mxCell id="rDByf0yw_ZwL_BVkrjc8-1" value="+ criterion: nn.MSELoss" style="text;strokeColor=none;fillColor=none;align=left;verticalAlign=top;spacingLeft=4;spacingRight=4;overflow=hidden;rotatable=0;points=[[0,0.5],[1,0.5]];portConstraint=eastwest;whiteSpace=wrap;html=1;" parent="F02WSiELFCCfnab1IoZd-25" vertex="1">
          <mxGeometry y="52" width="380" height="26" as="geometry" />
        </mxCell>
        <mxCell id="rDByf0yw_ZwL_BVkrjc8-2" value="+ optimizer: nn.optim.Adam" style="text;strokeColor=none;fillColor=none;align=left;verticalAlign=top;spacingLeft=4;spacingRight=4;overflow=hidden;rotatable=0;points=[[0,0.5],[1,0.5]];portConstraint=eastwest;whiteSpace=wrap;html=1;" parent="F02WSiELFCCfnab1IoZd-25" vertex="1">
          <mxGeometry y="78" width="380" height="26" as="geometry" />
        </mxCell>
        <mxCell id="rDByf0yw_ZwL_BVkrjc8-3" value="+ optimizer: nn.optim.Adam" style="text;strokeColor=none;fillColor=none;align=left;verticalAlign=top;spacingLeft=4;spacingRight=4;overflow=hidden;rotatable=0;points=[[0,0.5],[1,0.5]];portConstraint=eastwest;whiteSpace=wrap;html=1;" parent="F02WSiELFCCfnab1IoZd-25" vertex="1">
          <mxGeometry y="104" width="380" height="26" as="geometry" />
        </mxCell>
        <mxCell id="F02WSiELFCCfnab1IoZd-27" value="" style="line;strokeWidth=1;fillColor=none;align=left;verticalAlign=middle;spacingTop=-1;spacingLeft=3;spacingRight=3;rotatable=0;labelPosition=right;points=[];portConstraint=eastwest;strokeColor=inherit;" parent="F02WSiELFCCfnab1IoZd-25" vertex="1">
          <mxGeometry y="130" width="380" height="8" as="geometry" />
        </mxCell>
        <mxCell id="F02WSiELFCCfnab1IoZd-28" value="+ crop_data(t_start: float, t_end: float): pd.DataFrame" style="text;strokeColor=none;fillColor=none;align=left;verticalAlign=top;spacingLeft=4;spacingRight=4;overflow=hidden;rotatable=0;points=[[0,0.5],[1,0.5]];portConstraint=eastwest;whiteSpace=wrap;html=1;" parent="F02WSiELFCCfnab1IoZd-25" vertex="1">
          <mxGeometry y="138" width="380" height="26" as="geometry" />
        </mxCell>
        <mxCell id="O2f7J1gtdTJRJmS3Wqu5-1" value="Visualizer" style="swimlane;fontStyle=1;align=center;verticalAlign=top;childLayout=stackLayout;horizontal=1;startSize=26;horizontalStack=0;resizeParent=1;resizeParentMax=0;resizeLast=0;collapsible=1;marginBottom=0;whiteSpace=wrap;html=1;" parent="1" vertex="1">
          <mxGeometry x="1630" y="418" width="500" height="112" as="geometry" />
        </mxCell>
        <mxCell id="O2f7J1gtdTJRJmS3Wqu5-8" value="+ df_sync" style="text;strokeColor=none;fillColor=none;align=left;verticalAlign=top;spacingLeft=4;spacingRight=4;overflow=hidden;rotatable=0;points=[[0,0.5],[1,0.5]];portConstraint=eastwest;whiteSpace=wrap;html=1;" parent="O2f7J1gtdTJRJmS3Wqu5-1" vertex="1">
          <mxGeometry y="26" width="500" height="26" as="geometry" />
        </mxCell>
        <mxCell id="O2f7J1gtdTJRJmS3Wqu5-9" value="" style="line;strokeWidth=1;fillColor=none;align=left;verticalAlign=middle;spacingTop=-1;spacingLeft=3;spacingRight=3;rotatable=0;labelPosition=right;points=[];portConstraint=eastwest;strokeColor=inherit;" parent="O2f7J1gtdTJRJmS3Wqu5-1" vertex="1">
          <mxGeometry y="52" width="500" height="8" as="geometry" />
        </mxCell>
        <mxCell id="O2f7J1gtdTJRJmS3Wqu5-10" value="- __init__(filepath: str)" style="text;strokeColor=none;fillColor=none;align=left;verticalAlign=top;spacingLeft=4;spacingRight=4;overflow=hidden;rotatable=0;points=[[0,0.5],[1,0.5]];portConstraint=eastwest;whiteSpace=wrap;html=1;" parent="O2f7J1gtdTJRJmS3Wqu5-1" vertex="1">
          <mxGeometry y="60" width="500" height="26" as="geometry" />
        </mxCell>
        <mxCell id="O2f7J1gtdTJRJmS3Wqu5-20" value="+ plot_data" style="text;strokeColor=none;fillColor=none;align=left;verticalAlign=top;spacingLeft=4;spacingRight=4;overflow=hidden;rotatable=0;points=[[0,0.5],[1,0.5]];portConstraint=eastwest;whiteSpace=wrap;html=1;" parent="O2f7J1gtdTJRJmS3Wqu5-1" vertex="1">
          <mxGeometry y="86" width="500" height="26" as="geometry" />
        </mxCell>
        <mxCell id="O2f7J1gtdTJRJmS3Wqu5-21" value="AutoEncoder" style="swimlane;fontStyle=1;align=center;verticalAlign=top;childLayout=stackLayout;horizontal=1;startSize=26;horizontalStack=0;resizeParent=1;resizeParentMax=0;resizeLast=0;collapsible=1;marginBottom=0;whiteSpace=wrap;html=1;" parent="1" vertex="1">
          <mxGeometry x="2010" y="1780" width="310" height="112" as="geometry" />
        </mxCell>
        <mxCell id="O2f7J1gtdTJRJmS3Wqu5-22" value="+" style="text;strokeColor=none;fillColor=none;align=left;verticalAlign=top;spacingLeft=4;spacingRight=4;overflow=hidden;rotatable=0;points=[[0,0.5],[1,0.5]];portConstraint=eastwest;whiteSpace=wrap;html=1;" parent="O2f7J1gtdTJRJmS3Wqu5-21" vertex="1">
          <mxGeometry y="26" width="310" height="26" as="geometry" />
        </mxCell>
        <mxCell id="O2f7J1gtdTJRJmS3Wqu5-23" value="" style="line;strokeWidth=1;fillColor=none;align=left;verticalAlign=middle;spacingTop=-1;spacingLeft=3;spacingRight=3;rotatable=0;labelPosition=right;points=[];portConstraint=eastwest;strokeColor=inherit;" parent="O2f7J1gtdTJRJmS3Wqu5-21" vertex="1">
          <mxGeometry y="52" width="310" height="8" as="geometry" />
        </mxCell>
        <mxCell id="O2f7J1gtdTJRJmS3Wqu5-24" value="- __init__(input_sizes: int, hidden_sizes: list)" style="text;strokeColor=none;fillColor=none;align=left;verticalAlign=top;spacingLeft=4;spacingRight=4;overflow=hidden;rotatable=0;points=[[0,0.5],[1,0.5]];portConstraint=eastwest;whiteSpace=wrap;html=1;" parent="O2f7J1gtdTJRJmS3Wqu5-21" vertex="1">
          <mxGeometry y="60" width="310" height="26" as="geometry" />
        </mxCell>
        <mxCell id="O2f7J1gtdTJRJmS3Wqu5-52" value="+ forward(x: tensor)" style="text;strokeColor=none;fillColor=none;align=left;verticalAlign=top;spacingLeft=4;spacingRight=4;overflow=hidden;rotatable=0;points=[[0,0.5],[1,0.5]];portConstraint=eastwest;whiteSpace=wrap;html=1;" parent="O2f7J1gtdTJRJmS3Wqu5-21" vertex="1">
          <mxGeometry y="86" width="310" height="26" as="geometry" />
        </mxCell>
        <mxCell id="O2f7J1gtdTJRJmS3Wqu5-26" value="Encoder" style="swimlane;fontStyle=1;align=center;verticalAlign=top;childLayout=stackLayout;horizontal=1;startSize=26;horizontalStack=0;resizeParent=1;resizeParentMax=0;resizeLast=0;collapsible=1;marginBottom=0;whiteSpace=wrap;html=1;" parent="1" vertex="1">
          <mxGeometry x="1640" y="1690" width="260" height="112" as="geometry" />
        </mxCell>
        <mxCell id="O2f7J1gtdTJRJmS3Wqu5-27" value="+ lstm" style="text;strokeColor=none;fillColor=none;align=left;verticalAlign=top;spacingLeft=4;spacingRight=4;overflow=hidden;rotatable=0;points=[[0,0.5],[1,0.5]];portConstraint=eastwest;whiteSpace=wrap;html=1;" parent="O2f7J1gtdTJRJmS3Wqu5-26" vertex="1">
          <mxGeometry y="26" width="260" height="26" as="geometry" />
        </mxCell>
        <mxCell id="O2f7J1gtdTJRJmS3Wqu5-28" value="" style="line;strokeWidth=1;fillColor=none;align=left;verticalAlign=middle;spacingTop=-1;spacingLeft=3;spacingRight=3;rotatable=0;labelPosition=right;points=[];portConstraint=eastwest;strokeColor=inherit;" parent="O2f7J1gtdTJRJmS3Wqu5-26" vertex="1">
          <mxGeometry y="52" width="260" height="8" as="geometry" />
        </mxCell>
        <mxCell id="O2f7J1gtdTJRJmS3Wqu5-36" value="- __init__(input_size: int, hidden_sizes: list)" style="text;strokeColor=none;fillColor=none;align=left;verticalAlign=top;spacingLeft=4;spacingRight=4;overflow=hidden;rotatable=0;points=[[0,0.5],[1,0.5]];portConstraint=eastwest;whiteSpace=wrap;html=1;" parent="O2f7J1gtdTJRJmS3Wqu5-26" vertex="1">
          <mxGeometry y="60" width="260" height="26" as="geometry" />
        </mxCell>
        <mxCell id="O2f7J1gtdTJRJmS3Wqu5-29" value="+ forward(x: tensor)" style="text;strokeColor=none;fillColor=none;align=left;verticalAlign=top;spacingLeft=4;spacingRight=4;overflow=hidden;rotatable=0;points=[[0,0.5],[1,0.5]];portConstraint=eastwest;whiteSpace=wrap;html=1;" parent="O2f7J1gtdTJRJmS3Wqu5-26" vertex="1">
          <mxGeometry y="86" width="260" height="26" as="geometry" />
        </mxCell>
        <mxCell id="O2f7J1gtdTJRJmS3Wqu5-37" value="Decoder" style="swimlane;fontStyle=1;align=center;verticalAlign=top;childLayout=stackLayout;horizontal=1;startSize=26;horizontalStack=0;resizeParent=1;resizeParentMax=0;resizeLast=0;collapsible=1;marginBottom=0;whiteSpace=wrap;html=1;" parent="1" vertex="1">
          <mxGeometry x="1640" y="1879" width="260" height="112" as="geometry" />
        </mxCell>
        <mxCell id="O2f7J1gtdTJRJmS3Wqu5-38" value="+ lstm" style="text;strokeColor=none;fillColor=none;align=left;verticalAlign=top;spacingLeft=4;spacingRight=4;overflow=hidden;rotatable=0;points=[[0,0.5],[1,0.5]];portConstraint=eastwest;whiteSpace=wrap;html=1;" parent="O2f7J1gtdTJRJmS3Wqu5-37" vertex="1">
          <mxGeometry y="26" width="260" height="26" as="geometry" />
        </mxCell>
        <mxCell id="O2f7J1gtdTJRJmS3Wqu5-39" value="" style="line;strokeWidth=1;fillColor=none;align=left;verticalAlign=middle;spacingTop=-1;spacingLeft=3;spacingRight=3;rotatable=0;labelPosition=right;points=[];portConstraint=eastwest;strokeColor=inherit;" parent="O2f7J1gtdTJRJmS3Wqu5-37" vertex="1">
          <mxGeometry y="52" width="260" height="8" as="geometry" />
        </mxCell>
        <mxCell id="O2f7J1gtdTJRJmS3Wqu5-40" value="- __init__(hidden_sizes: list, output_size: int)" style="text;strokeColor=none;fillColor=none;align=left;verticalAlign=top;spacingLeft=4;spacingRight=4;overflow=hidden;rotatable=0;points=[[0,0.5],[1,0.5]];portConstraint=eastwest;whiteSpace=wrap;html=1;" parent="O2f7J1gtdTJRJmS3Wqu5-37" vertex="1">
          <mxGeometry y="60" width="260" height="26" as="geometry" />
        </mxCell>
        <mxCell id="O2f7J1gtdTJRJmS3Wqu5-41" value="+ forward(x: tensor)" style="text;strokeColor=none;fillColor=none;align=left;verticalAlign=top;spacingLeft=4;spacingRight=4;overflow=hidden;rotatable=0;points=[[0,0.5],[1,0.5]];portConstraint=eastwest;whiteSpace=wrap;html=1;" parent="O2f7J1gtdTJRJmS3Wqu5-37" vertex="1">
          <mxGeometry y="86" width="260" height="26" as="geometry" />
        </mxCell>
        <mxCell id="O2f7J1gtdTJRJmS3Wqu5-42" value="LSTM (nn.module)" style="swimlane;fontStyle=1;align=center;verticalAlign=top;childLayout=stackLayout;horizontal=1;startSize=26;horizontalStack=0;resizeParent=1;resizeParentMax=0;resizeLast=0;collapsible=1;marginBottom=0;whiteSpace=wrap;html=1;" parent="1" vertex="1">
          <mxGeometry x="1220" y="1780" width="270" height="86" as="geometry" />
        </mxCell>
        <mxCell id="O2f7J1gtdTJRJmS3Wqu5-43" value="+" style="text;strokeColor=none;fillColor=none;align=left;verticalAlign=top;spacingLeft=4;spacingRight=4;overflow=hidden;rotatable=0;points=[[0,0.5],[1,0.5]];portConstraint=eastwest;whiteSpace=wrap;html=1;" parent="O2f7J1gtdTJRJmS3Wqu5-42" vertex="1">
          <mxGeometry y="26" width="270" height="26" as="geometry" />
        </mxCell>
        <mxCell id="O2f7J1gtdTJRJmS3Wqu5-44" value="" style="line;strokeWidth=1;fillColor=none;align=left;verticalAlign=middle;spacingTop=-1;spacingLeft=3;spacingRight=3;rotatable=0;labelPosition=right;points=[];portConstraint=eastwest;strokeColor=inherit;" parent="O2f7J1gtdTJRJmS3Wqu5-42" vertex="1">
          <mxGeometry y="52" width="270" height="8" as="geometry" />
        </mxCell>
        <mxCell id="O2f7J1gtdTJRJmS3Wqu5-45" value="- __init__(input_features: int, output_features: int)" style="text;strokeColor=none;fillColor=none;align=left;verticalAlign=top;spacingLeft=4;spacingRight=4;overflow=hidden;rotatable=0;points=[[0,0.5],[1,0.5]];portConstraint=eastwest;whiteSpace=wrap;html=1;" parent="O2f7J1gtdTJRJmS3Wqu5-42" vertex="1">
          <mxGeometry y="60" width="270" height="26" as="geometry" />
        </mxCell>
        <mxCell id="O2f7J1gtdTJRJmS3Wqu5-47" value="" style="endArrow=diamondThin;endFill=0;endSize=24;html=1;rounded=0;entryX=1;entryY=0.5;entryDx=0;entryDy=0;exitX=0.002;exitY=0.772;exitDx=0;exitDy=0;exitPerimeter=0;" parent="1" source="O2f7J1gtdTJRJmS3Wqu5-36" target="O2f7J1gtdTJRJmS3Wqu5-43" edge="1">
          <mxGeometry width="160" relative="1" as="geometry">
            <mxPoint x="1637" y="1766" as="sourcePoint" />
            <mxPoint x="1410" y="1970" as="targetPoint" />
            <Array as="points">
              <mxPoint x="1550" y="1770" />
              <mxPoint x="1550" y="1820" />
            </Array>
          </mxGeometry>
        </mxCell>
        <mxCell id="O2f7J1gtdTJRJmS3Wqu5-48" value="" style="endArrow=diamondThin;endFill=0;endSize=24;html=1;rounded=0;entryX=1;entryY=0.5;entryDx=0;entryDy=0;exitX=0.002;exitY=0.42;exitDx=0;exitDy=0;exitPerimeter=0;" parent="1" source="O2f7J1gtdTJRJmS3Wqu5-40" target="O2f7J1gtdTJRJmS3Wqu5-43" edge="1">
          <mxGeometry width="160" relative="1" as="geometry">
            <mxPoint x="1650" y="1783" as="sourcePoint" />
            <mxPoint x="1500" y="1829" as="targetPoint" />
            <Array as="points">
              <mxPoint x="1550" y="1950" />
              <mxPoint x="1550" y="1820" />
            </Array>
          </mxGeometry>
        </mxCell>
        <mxCell id="O2f7J1gtdTJRJmS3Wqu5-50" value="" style="endArrow=diamondThin;endFill=0;endSize=24;html=1;rounded=0;exitX=0;exitY=0.5;exitDx=0;exitDy=0;" parent="1" source="O2f7J1gtdTJRJmS3Wqu5-22" edge="1">
          <mxGeometry width="160" relative="1" as="geometry">
            <mxPoint x="2030" y="1780" as="sourcePoint" />
            <mxPoint x="1900" y="1760" as="targetPoint" />
          </mxGeometry>
        </mxCell>
        <mxCell id="O2f7J1gtdTJRJmS3Wqu5-51" value="" style="endArrow=diamondThin;endFill=0;endSize=24;html=1;rounded=0;exitX=0;exitY=0.5;exitDx=0;exitDy=0;entryX=1;entryY=0.5;entryDx=0;entryDy=0;" parent="1" source="O2f7J1gtdTJRJmS3Wqu5-24" target="O2f7J1gtdTJRJmS3Wqu5-38" edge="1">
          <mxGeometry width="160" relative="1" as="geometry">
            <mxPoint x="2070" y="1979" as="sourcePoint" />
            <mxPoint x="1920" y="1890" as="targetPoint" />
          </mxGeometry>
        </mxCell>
        <mxCell id="obyEVf-N4b41pzP6Xn4I-1" value="AccelerometerProcessor" style="swimlane;fontStyle=1;align=center;verticalAlign=top;childLayout=stackLayout;horizontal=1;startSize=26;horizontalStack=0;resizeParent=1;resizeParentMax=0;resizeLast=0;collapsible=1;marginBottom=0;whiteSpace=wrap;html=1;" vertex="1" parent="1">
          <mxGeometry x="10" y="430" width="240" height="60" as="geometry" />
        </mxCell>
        <mxCell id="obyEVf-N4b41pzP6Xn4I-9" value="" style="line;strokeWidth=1;fillColor=none;align=left;verticalAlign=middle;spacingTop=-1;spacingLeft=3;spacingRight=3;rotatable=0;labelPosition=right;points=[];portConstraint=eastwest;strokeColor=inherit;" vertex="1" parent="obyEVf-N4b41pzP6Xn4I-1">
          <mxGeometry y="26" width="240" height="8" as="geometry" />
        </mxCell>
        <mxCell id="obyEVf-N4b41pzP6Xn4I-10" value="+ process(filepath: str) -&amp;gt; pd.DataFrame" style="text;strokeColor=none;fillColor=none;align=left;verticalAlign=top;spacingLeft=4;spacingRight=4;overflow=hidden;rotatable=0;points=[[0,0.5],[1,0.5]];portConstraint=eastwest;whiteSpace=wrap;html=1;" vertex="1" parent="obyEVf-N4b41pzP6Xn4I-1">
          <mxGeometry y="34" width="240" height="26" as="geometry" />
        </mxCell>
        <mxCell id="obyEVf-N4b41pzP6Xn4I-20" value="TimeRange" style="swimlane;fontStyle=0;childLayout=stackLayout;horizontal=1;startSize=26;fillColor=none;horizontalStack=0;resizeParent=1;resizeParentMax=0;resizeLast=0;collapsible=1;marginBottom=0;whiteSpace=wrap;html=1;" vertex="1" parent="1">
          <mxGeometry x="900" y="430" width="140" height="104" as="geometry" />
        </mxCell>
        <mxCell id="obyEVf-N4b41pzP6Xn4I-21" value="+ t_min: float" style="text;strokeColor=none;fillColor=none;align=left;verticalAlign=top;spacingLeft=4;spacingRight=4;overflow=hidden;rotatable=0;points=[[0,0.5],[1,0.5]];portConstraint=eastwest;whiteSpace=wrap;html=1;" vertex="1" parent="obyEVf-N4b41pzP6Xn4I-20">
          <mxGeometry y="26" width="140" height="26" as="geometry" />
        </mxCell>
        <mxCell id="obyEVf-N4b41pzP6Xn4I-22" value="+ t_max: float" style="text;strokeColor=none;fillColor=none;align=left;verticalAlign=top;spacingLeft=4;spacingRight=4;overflow=hidden;rotatable=0;points=[[0,0.5],[1,0.5]];portConstraint=eastwest;whiteSpace=wrap;html=1;" vertex="1" parent="obyEVf-N4b41pzP6Xn4I-20">
          <mxGeometry y="52" width="140" height="26" as="geometry" />
        </mxCell>
        <mxCell id="obyEVf-N4b41pzP6Xn4I-23" value="+ n_samples: int" style="text;strokeColor=none;fillColor=none;align=left;verticalAlign=top;spacingLeft=4;spacingRight=4;overflow=hidden;rotatable=0;points=[[0,0.5],[1,0.5]];portConstraint=eastwest;whiteSpace=wrap;html=1;" vertex="1" parent="obyEVf-N4b41pzP6Xn4I-20">
          <mxGeometry y="78" width="140" height="26" as="geometry" />
        </mxCell>
        <mxCell id="obyEVf-N4b41pzP6Xn4I-24" value="StrainGaugeProcessor" style="swimlane;fontStyle=1;align=center;verticalAlign=top;childLayout=stackLayout;horizontal=1;startSize=26;horizontalStack=0;resizeParent=1;resizeParentMax=0;resizeLast=0;collapsible=1;marginBottom=0;whiteSpace=wrap;html=1;" vertex="1" parent="1">
          <mxGeometry x="300" y="410" width="500" height="86" as="geometry" />
        </mxCell>
        <mxCell id="obyEVf-N4b41pzP6Xn4I-25" value="" style="line;strokeWidth=1;fillColor=none;align=left;verticalAlign=middle;spacingTop=-1;spacingLeft=3;spacingRight=3;rotatable=0;labelPosition=right;points=[];portConstraint=eastwest;strokeColor=inherit;" vertex="1" parent="obyEVf-N4b41pzP6Xn4I-24">
          <mxGeometry y="26" width="500" height="8" as="geometry" />
        </mxCell>
        <mxCell id="obyEVf-N4b41pzP6Xn4I-26" value="+ process(filepath: str) -&amp;gt; tuple[pd.DataFrame, pd.DataFrame]" style="text;strokeColor=none;fillColor=none;align=left;verticalAlign=top;spacingLeft=4;spacingRight=4;overflow=hidden;rotatable=0;points=[[0,0.5],[1,0.5]];portConstraint=eastwest;whiteSpace=wrap;html=1;" vertex="1" parent="obyEVf-N4b41pzP6Xn4I-24">
          <mxGeometry y="34" width="500" height="26" as="geometry" />
        </mxCell>
        <mxCell id="obyEVf-N4b41pzP6Xn4I-27" value="# reconstruct_strain_gauge_data(df: pd.DataFrame) -&amp;gt; tuple[pd.DataFrame, pd.DataFrame]" style="text;strokeColor=none;fillColor=none;align=left;verticalAlign=top;spacingLeft=4;spacingRight=4;overflow=hidden;rotatable=0;points=[[0,0.5],[1,0.5]];portConstraint=eastwest;whiteSpace=wrap;html=1;" vertex="1" parent="obyEVf-N4b41pzP6Xn4I-24">
          <mxGeometry y="60" width="500" height="26" as="geometry" />
        </mxCell>
        <mxCell id="obyEVf-N4b41pzP6Xn4I-28" value="DataSynchronizer" style="swimlane;fontStyle=1;align=center;verticalAlign=top;childLayout=stackLayout;horizontal=1;startSize=26;horizontalStack=0;resizeParent=1;resizeParentMax=0;resizeLast=0;collapsible=1;marginBottom=0;whiteSpace=wrap;html=1;" vertex="1" parent="1">
          <mxGeometry x="770" y="642" width="500" height="86" as="geometry" />
        </mxCell>
        <mxCell id="obyEVf-N4b41pzP6Xn4I-29" value="" style="line;strokeWidth=1;fillColor=none;align=left;verticalAlign=middle;spacingTop=-1;spacingLeft=3;spacingRight=3;rotatable=0;labelPosition=right;points=[];portConstraint=eastwest;strokeColor=inherit;" vertex="1" parent="obyEVf-N4b41pzP6Xn4I-28">
          <mxGeometry y="26" width="500" height="8" as="geometry" />
        </mxCell>
        <mxCell id="obyEVf-N4b41pzP6Xn4I-30" value="+ get_time_range(dataframes: List[pd.DataFrame) -&amp;gt; TimeRange" style="text;strokeColor=none;fillColor=none;align=left;verticalAlign=top;spacingLeft=4;spacingRight=4;overflow=hidden;rotatable=0;points=[[0,0.5],[1,0.5]];portConstraint=eastwest;whiteSpace=wrap;html=1;" vertex="1" parent="obyEVf-N4b41pzP6Xn4I-28">
          <mxGeometry y="34" width="500" height="26" as="geometry" />
        </mxCell>
        <mxCell id="obyEVf-N4b41pzP6Xn4I-31" value="+ interpolate_data(t: np.ndarray, df: pd.DataFrame, columns: List[str]) -&amp;gt; pd.DataFrame" style="text;strokeColor=none;fillColor=none;align=left;verticalAlign=top;spacingLeft=4;spacingRight=4;overflow=hidden;rotatable=0;points=[[0,0.5],[1,0.5]];portConstraint=eastwest;whiteSpace=wrap;html=1;" vertex="1" parent="obyEVf-N4b41pzP6Xn4I-28">
          <mxGeometry y="60" width="500" height="26" as="geometry" />
        </mxCell>
        <mxCell id="obyEVf-N4b41pzP6Xn4I-38" value="" style="endArrow=diamondThin;endFill=1;endSize=24;html=1;rounded=0;entryX=0.781;entryY=1.013;entryDx=0;entryDy=0;entryPerimeter=0;exitX=0.12;exitY=0.006;exitDx=0;exitDy=0;exitPerimeter=0;" edge="1" parent="1" source="F02WSiELFCCfnab1IoZd-1" target="obyEVf-N4b41pzP6Xn4I-10">
          <mxGeometry width="160" relative="1" as="geometry">
            <mxPoint x="330" y="680" as="sourcePoint" />
            <mxPoint x="490" y="680" as="targetPoint" />
          </mxGeometry>
        </mxCell>
        <mxCell id="obyEVf-N4b41pzP6Xn4I-39" value="" style="endArrow=diamondThin;endFill=1;endSize=24;html=1;rounded=0;exitX=0.82;exitY=0.002;exitDx=0;exitDy=0;exitPerimeter=0;" edge="1" parent="1" source="F02WSiELFCCfnab1IoZd-1" target="obyEVf-N4b41pzP6Xn4I-27">
          <mxGeometry width="160" relative="1" as="geometry">
            <mxPoint x="215" y="600" as="sourcePoint" />
            <mxPoint x="149" y="500" as="targetPoint" />
          </mxGeometry>
        </mxCell>
        <mxCell id="obyEVf-N4b41pzP6Xn4I-40" value="" style="endArrow=diamondThin;endFill=1;endSize=24;html=1;rounded=0;exitX=1.001;exitY=0.803;exitDx=0;exitDy=0;exitPerimeter=0;entryX=0;entryY=0.25;entryDx=0;entryDy=0;" edge="1" parent="1" source="F02WSiELFCCfnab1IoZd-5" target="obyEVf-N4b41pzP6Xn4I-28">
          <mxGeometry width="160" relative="1" as="geometry">
            <mxPoint x="560" y="601" as="sourcePoint" />
            <mxPoint x="560" y="506" as="targetPoint" />
          </mxGeometry>
        </mxCell>
        <mxCell id="obyEVf-N4b41pzP6Xn4I-41" value="" style="endArrow=diamondThin;endFill=1;endSize=24;html=1;rounded=0;entryX=0.505;entryY=1.054;entryDx=0;entryDy=0;entryPerimeter=0;" edge="1" parent="1" target="obyEVf-N4b41pzP6Xn4I-23">
          <mxGeometry width="160" relative="1" as="geometry">
            <mxPoint x="970" y="640" as="sourcePoint" />
            <mxPoint x="1025" y="535" as="targetPoint" />
          </mxGeometry>
        </mxCell>
      </root>
    </mxGraphModel>
  </diagram>
</mxfile>
